#!OML:ASF G:\JayActor3\Patient Classification 1\Patient 1\Session 5\male.ASF
:FULLY-SPECIFIED
:DEGREES
671
root -3.70819 16.6982 -6.46271 996.246 -86.4021 -982.759
lowerback 16.4804 -1.79498 -0.65311
upperback 6.91174 -2.93619 -2.5491
thorax -1.97943 -1.59983 -1.77838
lowerneck 6.1589 0.670825 1.36269
upperneck -16.4788 1.18046 2.02195
head -6.00421 0.230142 0.341643
rclavicle 4.01545e-014 2.98177e-014
rhumerus -35.8223 -8.84115 -84.8042
rradius 23.469
rwrist 9.14286
rhand -22.0713 -9.10169
rfingers 7.12502
rthumb 4.3399 -39.0372
lclavicle 4.01545e-014 2.98177e-014
lhumerus -36.5644 6.70749 81.1161
lradius 27.7875
lwrist 20.0156
lhand -20.5662 14.249
lfingers 7.12502
lthumb 5.79317 44.1499
rfemur -54.3311 -4.57316 25.5636
rtibia 47.5521
rfoot 5.42186 -7.46329
rtoes 8.66494
lfemur 16.0056 11.4529 -22.5324
ltibia 8.77309
lfoot 28.5498 1.16913
ltoes -20.5862
672
root -3.92539 16.6371 -6.46266 994.469 -86.6644 -981.249
lowerback 16.8023 -1.79046 -0.303535
upperback 6.84905 -2.87992 -2.47301
thorax -2.22509 -1.56705 -1.89331
lowerneck 6.13157 0.664541 1.30967
upperneck -16.4212 1.15218 1.94039
head -5.98079 0.227844 0.32654
rclavicle -6.83819e-014 -8.42847e-014
rhumerus -35.7587 -8.80005 -84.768
rradius 23.2541
rwrist 9.37933
rhand -22.0358 -9.04232
rfingers 7.12502
rthumb 4.37415 -38.9772
lclavicle -6.83819e-014 -8.42847e-014
lhumerus -36.6498 6.99277 81.0585
lradius 27.5922
lwrist 19.9907
lhand -20.8117 14.2243
lfingers 7.12502
lthumb 5.55617 44.1315
rfemur -54.0748 -4.1296 25.7558
rtibia 49.2293
rfoot 3.56689 -7.21479
rtoes 7.07423
lfemur 15.1367 11.6712 -21.964
ltibia 12.1001
lfoot 28.5574 0.0569739
ltoes -21.2788
673
root -4.13378 16.5905 -6.46241 991.675 -87.046 -978.687
lowerback 17.1907 -1.79253 0.129911
upperback 6.79083 -2.81547 -2.35613
thorax -2.50121 -1.53075 -2.01312
lowerneck 6.13816 0.663826 1.27146
upperneck -16.4626 1.12952 1.83273
head -5.99421 0.226506 0.300493
rclavicle -1.59028e-015 -1.82882e-014
rhumerus -35.6151 -8.71281 -84.7593
rradius 23.0912
rwrist 9.6377
rhand -21.9926 -8.9727
rfingers 7.12502
rthumb 4.4159 -38.9067
lclavicle -1.59028e-015 -1.82882e-014
lhumerus -36.7025 7.23228 81.0458
lradius 27.4295
lwrist 19.9948
lhand -21.0362 14.2178
lfingers 7.12502
lthumb 5.33939 44.1305
rfemur -53.7534 -3.62327 26.0075
rtibia 50.662
rfoot 2.12125 -7.05481
rtoes 5.53073
lfemur 14.2301 11.4939 -21.4273
ltibia 15.2377
lfoot 28.623 -0.584199
ltoes -21.8761
674
root -4.33262 16.5577 -6.46318 988.285 -87.513 -975.459
lowerback 17.5944 -1.81049 0.619593
upperback 6.73296 -2.75625 -2.20517
thorax -2.78461 -1.49781 -2.12835
lowerneck 6.18242 0.665528 1.24647
upperneck -16.5897 1.11173 1.72342
head -6.0412 0.224524 0.271455
rclavicle 1.59028e-015 1.07344e-014
rhumerus -35.4025 -8.59053 -84.7857
rradius 22.9915
rwrist 9.88778
rhand -21.9967 -8.89371
rfingers 7.12502
rthumb 4.41193 -38.8278
lclavicle 1.59028e-015 1.07344e-014
lhumerus -36.7046 7.40981 81.0793
lradius 27.2978
lwrist 20.0145
lhand -21.2178 14.2445
lfingers 7.12502
lthumb 5.16408 44.1615
rfemur -53.4151 -3.11577 26.3114
rtibia 51.8702
rfoot 1.0536 -6.89021
rtoes 3.88163
lfemur 13.1743 11.3209 -20.8214
ltibia 18.3396
lfoot 28.8813 -1.19698
ltoes -22.3125
675
root -4.52175 16.5385 -6.46609 984.829 -88.0143 -972.083
lowerback 17.9786 -1.84651 1.11298
upperback 6.67971 -2.71328 -2.03368
thorax -3.05155 -1.47415 -2.22225
lowerneck 6.25693 0.665445 1.23146
upperneck -16.7766 1.09586 1.63395
head -6.11254 0.219775 0.246912
rclavicle 2.54444e-014 1.43125e-014
rhumerus -35.1304 -8.41672 -84.866
rradius 22.9676
rwrist 10.0736
rhand -22.0814 -8.81275
rfingers 7.12502
rthumb 4.33014 -38.7485
lclavicle 2.54444e-014 1.43125e-014
lhumerus -36.6362 7.51101 81.1617
lradius 27.1939
lwrist 20.0439
lhand -21.3316 14.2938
lfingers 7.12502
lthumb 5.05416 44.2136
rfemur -53.104 -2.66611 26.6338
rtibia 52.8831
rfoot 0.302666 -6.69949
rtoes 2.21938
lfemur 11.9265 11.1136 -20.1972
ltibia 21.4329
lfoot 29.3007 -1.82787
ltoes -22.622
676
root -4.70174 16.5324 -6.47156 981.577 -88.503 -968.835
lowerback 18.316 -1.89284 1.55794
upperback 6.64078 -2.68733 -1.85836
thorax -3.27664 -1.46029 -2.28324
lowerneck 6.34605 0.662967 1.22787
upperneck -16.99 1.08306 1.57651
head -6.1951 0.212645 0.230392
rclavicle -2.90226e-014 6.75868e-015
rhumerus -34.801 -8.18803 -85.01
rradius 23.0231
rwrist 10.1727
rhand -22.2431 -8.73846
rfingers 7.12502
rthumb 4.17406 -38.6773
lclavicle -2.90226e-014 6.75868e-015
lhumerus -36.48 7.53624 81.29
lradius 27.1177
lwrist 20.076
lhand -21.3868 14.353
lfingers 7.12502
lthumb 5.00089 44.2739
rfemur -52.8462 -2.30338 26.9407
rtibia 53.7302
rfoot -0.16898 -6.50008
rtoes 0.725424
lfemur 10.4994 10.8523 -19.6108
ltibia 24.4866
lfoot 29.767 -2.47937
ltoes -22.7618
677
root -4.87421 16.5388 -6.47875 978.371 -88.9697 -965.571
lowerback 18.5843 -1.94229 1.9528
upperback 6.62961 -2.67239 -1.68852
thorax -3.43435 -1.45271 -2.32201
lowerneck 6.43308 0.65711 1.22931
upperneck -17.2024 1.07381 1.56722
head -6.2775 0.203066 0.22808
rclavicle 5.96354e-015 -2.38542e-015
rhumerus -34.4144 -7.8991 -85.2227
rradius 23.1604
rwrist 10.1711
rhand -22.4843 -8.6698
rfingers 7.12502
rthumb 3.94115 -38.6131
lclavicle 5.96354e-015 -2.38542e-015
lhumerus -36.2277 7.48836 81.4593
lradius 27.0761
lwrist 20.1131
lhand -21.3759 14.4205
lfingers 7.12502
lthumb 5.01141 44.3412
rfemur -52.6346 -2.03954 27.2386
rtibia 54.4305
rfoot -0.394755 -6.32086
rtoes -0.483778
lfemur 8.93768 10.5304 -19.0785
ltibia 27.4472
lfoot 30.1411 -3.17573
ltoes -22.7707
678
root -5.04071 16.556 -6.48621 972.886 -89.4244 -959.988
lowerback 18.7772 -1.98964 2.32413
upperback 6.65508 -2.65979 -1.52682
thorax -3.51285 -1.44649 -2.35852
lowerneck 6.5013 0.647035 1.23394
upperneck -17.3889 1.06694 1.60731
head -6.34886 0.190995 0.240824
rclavicle -1.80894e-014 7.95139e-016
rhumerus -33.9752 -7.54752 -85.5007
rradius 23.3781
rwrist 10.0764
rhand -22.7384 -8.62227
rfingers 7.12502
rthumb 3.69574 -38.57
lclavicle -1.80894e-014 7.95139e-016
lhumerus -35.8894 7.37392 81.6631
lradius 27.0839
lwrist 20.1717
lhand -21.314 14.4699
lfingers 7.12502
lthumb 5.07119 44.3892
rfemur -52.4489 -1.88709 27.5621
rtibia 54.9967
rfoot -0.404754 -6.16349
rtoes -1.41549
lfemur 7.29657 10.1673 -18.5853
ltibia 30.2627
lfoot 30.2926 -3.92239
ltoes -22.7163
679
root -5.20287 16.5825 -6.49256 935.269 -89.8464 -922.25
lowerback 18.898 -2.03341 2.70223
upperback 6.71968 -2.64434 -1.3759
thorax -3.51215 -1.43848 -2.41386
lowerneck 6.54904 0.633593 1.24182
upperneck -17.5395 1.06349 1.69385
head -6.40569 0.177349 0.267625
rclavicle 1.98785e-014 -1.74931e-014
rhumerus -33.4976 -7.14035 -85.8352
rradius 23.6714
rwrist 9.90982
rhand -22.9979 -8.56389
rfingers 7.12502
rthumb 3.44515 -38.5158
lclavicle 1.98785e-014 -1.74931e-014
lhumerus -35.4931 7.20316 81.8894
lradius 27.1648
lwrist 20.2692
lhand -21.2172 14.5032
lfingers 7.12502
lthumb 5.16459 44.4203
rfemur -52.2586 -1.85625 27.9379
rtibia 55.4305
rfoot -0.232948 -6.01734
rtoes -2.09795
lfemur 5.62273 9.77841 -18.1149
ltibia 32.8956
lfoot 30.1339 -4.69992
ltoes -22.651
680
root -5.36198 16.6173 -6.49723 1004.49 -90.3788 -991.341
lowerback 18.9591 -2.06801 3.08714
upperback 6.81827 -2.62009 -1.24205
thorax -3.4439 -1.42542 -2.49562
lowerneck 6.58423 0.614945 1.25317
upperneck -17.6555 1.05982 1.81749
head -6.44958 0.161099 0.305724
rclavicle 4.37326e-015 -1.23246e-014
rhumerus -33.0031 -6.70948 -86.2047
rradius 24.0314
rwrist 9.69493
rhand -23.1984 -8.49369
rfingers 7.12502
rthumb 3.25149 -38.4486
lclavicle 4.37326e-015 -1.23246e-014
lhumerus -35.0726 6.98277 82.124
lradius 27.3273
lwrist 20.4166
lhand -21.1046 14.5099
lfingers 7.12502
lthumb 5.27339 44.4243
rfemur -52.0336 -1.92438 28.3527
rtibia 55.7314
rfoot 0.0832679 -5.87135
rtoes -2.67639
lfemur 3.94711 9.39685 -17.6691
ltibia 35.3243
lfoot 29.6617 -5.47961
ltoes -22.6159
